<svg width="48" height="48" viewBox="0 0 48 48" fill="none" xmlns="http://www.w3.org/2000/svg">
<g clip-path="url(#clip0_24_48)">
<mask id="mask0_24_48" style="mask-type:luminance" maskUnits="userSpaceOnUse" x="0" y="0" width="48" height="48">
<path d="M39.0508 0H8.94915C4.00667 0 0 4.00667 0 8.94915V39.0508C0 43.9933 4.00667 48 8.94915 48H39.0508C43.9933 48 48 43.9933 48 39.0508V8.94915C48 4.00667 43.9933 0 39.0508 0Z" fill="white"/>
</mask>
<g mask="url(#mask0_24_48)">
<path d="M39.0508 0H8.94915C4.00667 0 0 4.00667 0 8.94915V39.0508C0 43.9933 4.00667 48 8.94915 48H39.0508C43.9933 48 48 43.9933 48 39.0508V8.94915C48 4.00667 43.9933 0 39.0508 0Z" fill="#F2F2F2"/>
<path d="M0 0V48H48V0H0ZM29.2968 19.9312L29.025 23.5219H25.3407V35.9906H20.6906V23.5219H18.2062V19.9312H20.6906V17.5219C20.6906 16.4625 20.7188 14.8219 21.4875 13.8C22.3032 12.7219 23.4187 11.9906 25.3407 11.9906C28.4719 11.9906 29.7844 12.4406 29.7844 12.4406L29.1656 16.1156C29.1656 16.1156 28.1343 15.8156 27.1687 15.8156C26.2031 15.8156 25.3407 16.1625 25.3407 17.1281V19.9312H29.2968Z" fill="black"/>
</g>
</g>
<defs>
<clipPath id="clip0_24_48">
<rect width="48" height="48" fill="white"/>
</clipPath>
</defs>
</svg>
