<svg width="693" height="309" viewBox="0 0 693 309" fill="none" xmlns="http://www.w3.org/2000/svg">
<g clip-path="url(#clip0_15_306)">
<rect width="693" height="309" fill="white"/>
<rect x="-15" y="-199" width="731" height="612" fill="white"/>
<rect x="556" y="33" width="124" height="131" fill="#F69B37"/>
<ellipse cx="555.5" cy="-40" rx="144.5" ry="137" fill="white"/>
<ellipse cx="555.5" cy="234" rx="144.5" ry="137" fill="white"/>
<ellipse cx="804.5" cy="97" rx="144.5" ry="137" fill="white"/>
<ellipse cx="249.279" cy="99.5" rx="216.279" ry="78.5" fill="#F69B37"/>
<rect x="121.277" y="-80" width="408.723" height="370" fill="white"/>
<path d="M82.4351 95C86.5959 95 90.462 94.1088 93.3604 92.5697C96.1708 91.0774 98.5594 88.6738 98.5594 85.5C98.5594 82.3262 96.1708 79.9226 93.3604 78.4303C90.462 76.8912 86.5959 76 82.4351 76C78.2742 76 74.4081 76.8912 71.5097 78.4303C68.6993 79.9226 66.3107 82.3262 66.3107 85.5C66.3107 88.6738 68.6993 91.0774 71.5097 92.5697C74.4081 94.1088 78.2742 95 82.4351 95Z" fill="#DD1D24" stroke="white" stroke-width="4"/>
<path d="M236.908 262.202L234.987 290.226H162.441V287.288C171.33 287.966 175.775 285.179 175.775 278.926V211.239C175.775 207.548 174.494 205.137 171.933 204.007C170.426 203.329 167.752 203.103 163.91 203.329C160.068 203.555 157.469 203.442 156.113 202.99V199.826H226.512L228.659 222.426H225.495C224.139 215.797 222.143 211.051 219.506 208.188C216.342 204.798 211.596 203.103 205.268 203.103H187.075V244.913C194.985 236.325 204.289 232.031 214.986 232.031C221.163 232.031 225.269 233.538 227.303 236.551C223.838 235.195 220.372 234.517 216.907 234.517C207.189 234.517 198.224 239.527 190.013 249.546C187.979 252.032 186.924 253.35 186.849 253.501V272.372C186.849 279.604 188.017 283.973 190.352 285.48C191.859 286.459 196.228 286.949 203.46 286.949C212.425 286.949 218.527 285.819 221.766 283.559C226.06 280.546 230.128 273.427 233.97 262.202H236.908ZM285.713 283.672C285.713 285.706 284.772 287.439 282.888 288.87C281.08 290.226 279.122 290.904 277.012 290.904C272.643 290.904 269.78 288.418 268.424 283.446C261.644 288.418 255.994 290.904 251.474 290.904C248.612 290.904 246.126 290.038 244.016 288.305C241.982 286.572 240.965 284.312 240.965 281.525C240.965 276.478 244.129 272.41 250.457 269.321C250.909 269.095 255.505 266.948 264.243 262.88C254.525 268.605 249.666 274.218 249.666 279.717C249.666 281.676 250.194 283.371 251.248 284.802C252.378 286.158 253.885 286.836 255.768 286.836C259.384 286.836 263.678 284.614 268.65 280.169V255.761C268.65 250.186 265.298 247.399 258.593 247.399C254.902 247.399 252.378 248.303 251.022 250.111C250.947 250.262 250.382 251.994 249.327 255.309C248.725 257.192 247.519 258.134 245.711 258.134C243.527 258.134 242.434 257.079 242.434 254.97C242.434 251.203 244.996 248.454 250.118 246.721C253.433 245.591 256.635 245.026 259.723 245.026C270.797 245.026 276.334 249.245 276.334 257.682V282.655C276.334 285.442 277.427 286.836 279.611 286.836C282.248 286.836 283.642 285.141 283.792 281.751H285.713V283.672ZM317.907 247.512C317.907 248.868 316.589 249.546 313.952 249.546C312.747 249.546 310.035 248.981 305.816 247.851C310.788 246.194 313.726 245.365 314.63 245.365C316.815 245.365 317.907 246.081 317.907 247.512ZM318.698 283.107C317.869 285.442 316.325 287.288 314.065 288.644C311.88 290 309.507 290.678 306.946 290.678C303.631 290.678 300.919 289.51 298.81 287.175C296.776 284.84 295.759 281.977 295.759 278.587V246.382H289.205V244.235C292.595 244.16 295.495 242.578 297.906 239.489C300.091 236.777 301.409 233.613 301.861 229.997H303.669V278.7C303.669 280.809 304.272 282.693 305.477 284.35C306.682 285.932 308.302 286.723 310.336 286.723C312.37 286.723 314.592 285.216 317.003 282.203C317.681 282.58 318.246 282.881 318.698 283.107ZM424.287 222.652H421.688C419.503 209.77 413.589 203.329 403.947 203.329H381.46V244.009C388.616 236.174 397.581 232.257 408.354 232.257C414.004 232.257 418.147 233.801 420.784 236.89C417.017 235.459 413.476 234.743 410.162 234.743C401.348 234.743 393.023 238.999 385.189 247.512C382.552 250.375 381.234 251.957 381.234 252.258V275.536C381.234 280.056 382.025 283.182 383.607 284.915C385.189 286.648 388.202 287.514 392.647 287.514C393.626 287.514 394.718 287.476 395.924 287.401V290.339H355.922V287.401C357.504 287.702 358.935 287.853 360.216 287.853C364.736 287.853 367.711 286.12 369.143 282.655C369.971 280.621 370.386 276.967 370.386 271.694V218.245C370.386 211.766 369.557 207.661 367.9 205.928C366.242 204.195 362.174 203.329 355.696 203.329H348.577V200.052H424.287V222.652ZM453.352 274.406C452.222 279.001 451.243 282.165 450.414 283.898C448.305 288.343 445.518 290.565 442.052 290.565C437.156 290.565 434.707 287.326 434.707 280.847V253.388C434.707 250.299 433.916 248.755 432.334 248.755C430.978 248.755 429.359 250.412 427.475 253.727V252.371C427.475 250.412 428.191 248.604 429.622 246.947C431.054 245.29 432.749 244.461 434.707 244.461C436.817 244.461 438.474 245.591 439.679 247.851C440.659 249.659 441.148 251.731 441.148 254.066V278.587C441.148 283.634 442.203 286.158 444.312 286.158C446.497 286.158 448.606 284.312 450.64 280.621C452.147 277.909 453.051 275.837 453.352 274.406ZM483.268 278.361C483.268 281.977 482.063 284.915 479.652 287.175C477.317 289.435 474.341 290.565 470.725 290.565C466.582 290.565 463.192 289.021 460.555 285.932C459.651 287.137 458.936 288.606 458.408 290.339H456.487V276.666H458.408C460.668 284.501 464.736 288.418 470.612 288.418C475.66 288.418 478.183 285.932 478.183 280.96C478.183 277.721 476.3 275.046 472.533 272.937L462.137 267.061C458.371 264.424 456.487 261.185 456.487 257.343C456.487 254.179 457.542 251.467 459.651 249.207C461.836 246.872 464.51 245.704 467.674 245.704C470.386 245.704 472.948 246.57 475.358 248.303C478.07 250.186 479.426 252.409 479.426 254.97C479.426 255.648 479.163 256.364 478.635 257.117C478.183 257.795 477.656 258.134 477.053 258.134C476.225 258.134 475.697 257.268 475.471 255.535C475.17 253.049 474.756 251.392 474.228 250.563C473.098 248.83 470.951 247.964 467.787 247.964C463.192 247.964 460.894 250.036 460.894 254.179C460.894 256.891 463.079 259.49 467.448 261.976C468.804 262.654 472.157 264.349 477.505 267.061C481.347 269.848 483.268 273.615 483.268 278.361ZM540.627 290.226H518.14V288.079C520.852 288.004 522.773 287.552 523.903 286.723C525.109 285.894 525.711 284.199 525.711 281.638V259.603C525.711 252.22 522.321 248.529 515.541 248.529C512.076 248.529 508.573 249.584 505.032 251.693C508.95 247.399 513.583 245.252 518.931 245.252C528.649 245.252 533.508 250.827 533.508 261.976V284.237C533.508 287.1 535.881 288.305 540.627 287.853V290.226ZM508.874 290.226H486.726V287.853C488.534 288.079 490.192 287.891 491.698 287.288C493.582 286.61 494.41 285.405 494.184 283.672L493.958 215.081C493.958 214.478 493.695 211.917 493.167 207.397C492.414 204.233 490.38 202.764 487.065 202.99V200.843H493.845C494.599 200.843 495.653 200.655 497.009 200.278C498.441 199.826 499.533 199.6 500.286 199.6H501.868V282.429C501.868 285.744 504.204 287.627 508.874 288.079V290.226Z" fill="#F69B37"/>
<ellipse cx="343.5" cy="97" rx="199.5" ry="8" fill="#A7A7A7"/>
<path d="M306 178C307.256 178 308.19 177.011 308.867 175.909C309.586 174.74 310.243 173.08 310.851 171.038C312.07 166.937 313.156 161.053 314.063 153.84C315.88 139.4 317 119.482 317 97.5C317 75.5185 315.88 55.5998 314.063 41.1602C313.156 33.9475 312.07 28.0632 310.851 23.9625C310.243 21.9195 309.586 20.2605 308.867 19.0915C308.19 17.9892 307.256 17 306 17C304.744 17 303.81 17.9892 303.133 19.0915C302.414 20.2605 301.757 21.9195 301.149 23.9625C299.93 28.0632 298.844 33.9475 297.937 41.1602C296.12 55.5998 295 75.5185 295 97.5C295 119.482 296.12 139.4 297.937 153.84C298.844 161.053 299.93 166.937 301.149 171.038C301.757 173.08 302.414 174.74 303.133 175.909C303.81 177.011 304.744 178 306 178Z" fill="#DD1D24" stroke="white" stroke-width="2"/>
<path d="M245 178C246.256 178 247.19 177.011 247.867 175.909C248.586 174.74 249.243 173.08 249.851 171.038C251.07 166.937 252.156 161.053 253.063 153.84C254.88 139.4 256 119.482 256 97.5C256 75.5185 254.88 55.5998 253.063 41.1602C252.156 33.9475 251.07 28.0632 249.851 23.9625C249.243 21.9195 248.586 20.2605 247.867 19.0915C247.19 17.9892 246.256 17 245 17C243.744 17 242.81 17.9892 242.133 19.0915C241.414 20.2605 240.757 21.9195 240.149 23.9625C238.93 28.0632 237.844 33.9475 236.937 41.1602C235.12 55.5998 234 75.5185 234 97.5C234 119.482 235.12 139.4 236.937 153.84C237.844 161.053 238.93 166.937 240.149 171.038C240.757 173.08 241.414 174.74 242.133 175.909C242.81 177.011 243.744 178 245 178Z" fill="#1E9F55" stroke="white" stroke-width="2"/>
<path d="M186 165C187.144 165 187.94 164.061 188.476 163.143C189.06 162.142 189.589 160.731 190.076 159.006C191.055 155.542 191.924 150.575 192.65 144.495C194.104 132.32 195 115.528 195 97C195 78.4717 194.104 61.6802 192.65 49.5053C191.924 43.4246 191.055 38.4585 190.076 34.9935C189.589 33.2687 189.06 31.8578 188.476 30.8572C187.94 29.9387 187.144 29 186 29C184.856 29 184.06 29.9387 183.524 30.8572C182.94 31.8578 182.411 33.2687 181.924 34.9935C180.945 38.4585 180.076 43.4246 179.35 49.5053C177.896 61.6802 177 78.4717 177 97C177 115.528 177.896 132.32 179.35 144.495C180.076 150.575 180.945 155.542 181.924 159.006C182.411 160.731 182.94 162.142 183.524 163.143C184.06 164.061 184.856 165 186 165Z" fill="#1E9F55" stroke="white" stroke-width="2"/>
<path d="M367 178C368.256 178 369.19 177.011 369.867 175.909C370.586 174.74 371.243 173.08 371.851 171.038C373.07 166.937 374.156 161.053 375.063 153.84C376.88 139.4 378 119.482 378 97.5C378 75.5185 376.88 55.5998 375.063 41.1602C374.156 33.9475 373.07 28.0632 371.851 23.9625C371.243 21.9195 370.586 20.2605 369.867 19.0915C369.19 17.9892 368.256 17 367 17C365.744 17 364.81 17.9892 364.133 19.0915C363.414 20.2605 362.757 21.9195 362.149 23.9625C360.93 28.0632 359.844 33.9475 358.937 41.1602C357.12 55.5998 356 75.5185 356 97.5C356 119.482 357.12 139.4 358.937 153.84C359.844 161.053 360.93 166.937 362.149 171.038C362.757 173.08 363.414 174.74 364.133 175.909C364.81 177.011 365.744 178 367 178Z" fill="#F69B37" stroke="white" stroke-width="2"/>
<path d="M485 165C486.125 165 486.923 164.106 487.467 163.208C488.055 162.239 488.586 160.876 489.074 159.213C490.053 155.872 490.923 151.087 491.649 145.231C493.103 133.507 494 117.339 494 99.5C494 81.661 493.103 65.493 491.649 53.7685C490.923 47.9133 490.053 43.1281 489.074 39.7873C488.586 38.1245 488.055 36.7608 487.467 35.7921C486.923 34.8941 486.125 34 485 34C483.875 34 483.077 34.8941 482.533 35.7921C481.945 36.7608 481.414 38.1245 480.926 39.7873C479.947 43.1281 479.077 47.9133 478.351 53.7685C476.897 65.493 476 81.661 476 99.5C476 117.339 476.897 133.507 478.351 145.231C479.077 151.087 479.947 155.872 480.926 159.213C481.414 160.876 481.945 162.239 482.533 163.208C483.077 164.106 483.875 165 485 165Z" fill="#1E9F55" stroke="white" stroke-width="2"/>
<path d="M427 172C428.204 172 429.068 171.026 429.673 170.008C430.324 168.913 430.917 167.364 431.464 165.461C432.563 161.641 433.54 156.161 434.357 149.447C435.992 136.004 437 117.462 437 97C437 76.5382 435.992 57.996 434.357 44.5534C433.54 37.839 432.563 32.3592 431.464 28.5389C430.917 26.6364 430.324 25.087 429.673 23.9925C429.068 22.9744 428.204 22 427 22C425.796 22 424.932 22.9744 424.327 23.9925C423.676 25.087 423.083 26.6364 422.536 28.5389C421.437 32.3592 420.46 37.839 419.643 44.5534C418.008 57.996 417 76.5382 417 97C417 117.462 418.008 136.004 419.643 149.447C420.46 156.161 421.437 161.641 422.536 165.461C423.083 167.364 423.676 168.913 424.327 170.008C424.932 171.026 425.796 172 427 172Z" fill="#24A1BB" stroke="white" stroke-width="2"/>
</g>
<defs>
<clipPath id="clip0_15_306">
<rect width="693" height="309" fill="white"/>
</clipPath>
</defs>
</svg>
