<svg width="668" height="357" viewBox="0 0 668 357" fill="none" xmlns="http://www.w3.org/2000/svg">
<g clip-path="url(#clip0_15_108)">
<rect width="668" height="357" fill="white"/>
<rect x="-36" y="-196" width="731" height="612" fill="white"/>
<rect x="535" y="36" width="124" height="131" fill="#F69B37"/>
<ellipse cx="534.5" cy="-37" rx="144.5" ry="137" fill="white"/>
<ellipse cx="534.5" cy="237" rx="144.5" ry="137" fill="white"/>
<ellipse cx="783.5" cy="100" rx="144.5" ry="137" fill="white"/>
<ellipse cx="228.279" cy="102.5" rx="216.279" ry="78.5" fill="#F69B37"/>
<rect x="100.277" y="-77" width="408.723" height="370" fill="white"/>
<path d="M61.4351 98C65.5959 98 69.462 97.1088 72.3604 95.5697C75.1708 94.0774 77.5594 91.6738 77.5594 88.5C77.5594 85.3262 75.1708 82.9226 72.3604 81.4303C69.462 79.8912 65.5959 79 61.4351 79C57.2742 79 53.4081 79.8912 50.5097 81.4303C47.6993 82.9226 45.3107 85.3262 45.3107 88.5C45.3107 91.6738 47.6993 94.0774 50.5097 95.5697C53.4081 97.1088 57.2742 98 61.4351 98Z" fill="#DD1D24" stroke="white" stroke-width="4"/>
<path d="M215.908 265.202L213.987 293.226H141.441V290.288C150.33 290.966 154.775 288.179 154.775 281.926V214.239C154.775 210.548 153.494 208.137 150.933 207.007C149.426 206.329 146.752 206.103 142.91 206.329C139.068 206.555 136.469 206.442 135.113 205.99V202.826H205.512L207.659 225.426H204.495C203.139 218.797 201.143 214.051 198.506 211.188C195.342 207.798 190.596 206.103 184.268 206.103H166.075V247.913C173.985 239.325 183.289 235.031 193.986 235.031C200.163 235.031 204.269 236.538 206.303 239.551C202.838 238.195 199.372 237.517 195.907 237.517C186.189 237.517 177.224 242.527 169.013 252.546C166.979 255.032 165.924 256.35 165.849 256.501V275.372C165.849 282.604 167.017 286.973 169.352 288.48C170.859 289.459 175.228 289.949 182.46 289.949C191.425 289.949 197.527 288.819 200.766 286.559C205.06 283.546 209.128 276.427 212.97 265.202H215.908ZM264.713 286.672C264.713 288.706 263.772 290.439 261.888 291.87C260.08 293.226 258.122 293.904 256.012 293.904C251.643 293.904 248.78 291.418 247.424 286.446C240.644 291.418 234.994 293.904 230.474 293.904C227.612 293.904 225.126 293.038 223.016 291.305C220.982 289.572 219.965 287.312 219.965 284.525C219.965 279.478 223.129 275.41 229.457 272.321C229.909 272.095 234.505 269.948 243.243 265.88C233.525 271.605 228.666 277.218 228.666 282.717C228.666 284.676 229.194 286.371 230.248 287.802C231.378 289.158 232.885 289.836 234.768 289.836C238.384 289.836 242.678 287.614 247.65 283.169V258.761C247.65 253.186 244.298 250.399 237.593 250.399C233.902 250.399 231.378 251.303 230.022 253.111C229.947 253.262 229.382 254.994 228.327 258.309C227.725 260.192 226.519 261.134 224.711 261.134C222.527 261.134 221.434 260.079 221.434 257.97C221.434 254.203 223.996 251.454 229.118 249.721C232.433 248.591 235.635 248.026 238.723 248.026C249.797 248.026 255.334 252.245 255.334 260.682V285.655C255.334 288.442 256.427 289.836 258.611 289.836C261.248 289.836 262.642 288.141 262.792 284.751H264.713V286.672ZM296.907 250.512C296.907 251.868 295.589 252.546 292.952 252.546C291.747 252.546 289.035 251.981 284.816 250.851C289.788 249.194 292.726 248.365 293.63 248.365C295.815 248.365 296.907 249.081 296.907 250.512ZM297.698 286.107C296.869 288.442 295.325 290.288 293.065 291.644C290.88 293 288.507 293.678 285.946 293.678C282.631 293.678 279.919 292.51 277.81 290.175C275.776 287.84 274.759 284.977 274.759 281.587V249.382H268.205V247.235C271.595 247.16 274.495 245.578 276.906 242.489C279.091 239.777 280.409 236.613 280.861 232.997H282.669V281.7C282.669 283.809 283.272 285.693 284.477 287.35C285.682 288.932 287.302 289.723 289.336 289.723C291.37 289.723 293.592 288.216 296.003 285.203C296.681 285.58 297.246 285.881 297.698 286.107ZM403.287 225.652H400.688C398.503 212.77 392.589 206.329 382.947 206.329H360.46V247.009C367.616 239.174 376.581 235.257 387.354 235.257C393.004 235.257 397.147 236.801 399.784 239.89C396.017 238.459 392.476 237.743 389.162 237.743C380.348 237.743 372.023 241.999 364.189 250.512C361.552 253.375 360.234 254.957 360.234 255.258V278.536C360.234 283.056 361.025 286.182 362.607 287.915C364.189 289.648 367.202 290.514 371.647 290.514C372.626 290.514 373.718 290.476 374.924 290.401V293.339H334.922V290.401C336.504 290.702 337.935 290.853 339.216 290.853C343.736 290.853 346.711 289.12 348.143 285.655C348.971 283.621 349.386 279.967 349.386 274.694V221.245C349.386 214.766 348.557 210.661 346.9 208.928C345.242 207.195 341.174 206.329 334.696 206.329H327.577V203.052H403.287V225.652ZM432.352 277.406C431.222 282.001 430.243 285.165 429.414 286.898C427.305 291.343 424.518 293.565 421.052 293.565C416.156 293.565 413.707 290.326 413.707 283.847V256.388C413.707 253.299 412.916 251.755 411.334 251.755C409.978 251.755 408.359 253.412 406.475 256.727V255.371C406.475 253.412 407.191 251.604 408.622 249.947C410.054 248.29 411.749 247.461 413.707 247.461C415.817 247.461 417.474 248.591 418.679 250.851C419.659 252.659 420.148 254.731 420.148 257.066V281.587C420.148 286.634 421.203 289.158 423.312 289.158C425.497 289.158 427.606 287.312 429.64 283.621C431.147 280.909 432.051 278.837 432.352 277.406ZM462.268 281.361C462.268 284.977 461.063 287.915 458.652 290.175C456.317 292.435 453.341 293.565 449.725 293.565C445.582 293.565 442.192 292.021 439.555 288.932C438.651 290.137 437.936 291.606 437.408 293.339H435.487V279.666H437.408C439.668 287.501 443.736 291.418 449.612 291.418C454.66 291.418 457.183 288.932 457.183 283.96C457.183 280.721 455.3 278.046 451.533 275.937L441.137 270.061C437.371 267.424 435.487 264.185 435.487 260.343C435.487 257.179 436.542 254.467 438.651 252.207C440.836 249.872 443.51 248.704 446.674 248.704C449.386 248.704 451.948 249.57 454.358 251.303C457.07 253.186 458.426 255.409 458.426 257.97C458.426 258.648 458.163 259.364 457.635 260.117C457.183 260.795 456.656 261.134 456.053 261.134C455.225 261.134 454.697 260.268 454.471 258.535C454.17 256.049 453.756 254.392 453.228 253.563C452.098 251.83 449.951 250.964 446.787 250.964C442.192 250.964 439.894 253.036 439.894 257.179C439.894 259.891 442.079 262.49 446.448 264.976C447.804 265.654 451.157 267.349 456.505 270.061C460.347 272.848 462.268 276.615 462.268 281.361ZM519.627 293.226H497.14V291.079C499.852 291.004 501.773 290.552 502.903 289.723C504.109 288.894 504.711 287.199 504.711 284.638V262.603C504.711 255.22 501.321 251.529 494.541 251.529C491.076 251.529 487.573 252.584 484.032 254.693C487.95 250.399 492.583 248.252 497.931 248.252C507.649 248.252 512.508 253.827 512.508 264.976V287.237C512.508 290.1 514.881 291.305 519.627 290.853V293.226ZM487.874 293.226H465.726V290.853C467.534 291.079 469.192 290.891 470.698 290.288C472.582 289.61 473.41 288.405 473.184 286.672L472.958 218.081C472.958 217.478 472.695 214.917 472.167 210.397C471.414 207.233 469.38 205.764 466.065 205.99V203.843H472.845C473.599 203.843 474.653 203.655 476.009 203.278C477.441 202.826 478.533 202.6 479.286 202.6H480.868V285.429C480.868 288.744 483.204 290.627 487.874 291.079V293.226Z" fill="#F69B37"/>
<ellipse cx="322.5" cy="100" rx="199.5" ry="8" fill="#A7A7A7"/>
<path d="M285 181C286.256 181 287.19 180.011 287.867 178.909C288.586 177.74 289.243 176.08 289.851 174.038C291.07 169.937 292.156 164.053 293.063 156.84C294.88 142.4 296 122.482 296 100.5C296 78.5185 294.88 58.5998 293.063 44.1602C292.156 36.9475 291.07 31.0632 289.851 26.9625C289.243 24.9195 288.586 23.2605 287.867 22.0915C287.19 20.9892 286.256 20 285 20C283.744 20 282.81 20.9892 282.133 22.0915C281.414 23.2605 280.757 24.9195 280.149 26.9625C278.93 31.0632 277.844 36.9475 276.937 44.1602C275.12 58.5998 274 78.5185 274 100.5C274 122.482 275.12 142.4 276.937 156.84C277.844 164.053 278.93 169.937 280.149 174.038C280.757 176.08 281.414 177.74 282.133 178.909C282.81 180.011 283.744 181 285 181Z" fill="#DD1D24" stroke="white" stroke-width="2"/>
<path d="M224 181C225.256 181 226.19 180.011 226.867 178.909C227.586 177.74 228.243 176.08 228.851 174.038C230.07 169.937 231.156 164.053 232.063 156.84C233.88 142.4 235 122.482 235 100.5C235 78.5185 233.88 58.5998 232.063 44.1602C231.156 36.9475 230.07 31.0632 228.851 26.9625C228.243 24.9195 227.586 23.2605 226.867 22.0915C226.19 20.9892 225.256 20 224 20C222.744 20 221.81 20.9892 221.133 22.0915C220.414 23.2605 219.757 24.9195 219.149 26.9625C217.93 31.0632 216.844 36.9475 215.937 44.1602C214.12 58.5998 213 78.5185 213 100.5C213 122.482 214.12 142.4 215.937 156.84C216.844 164.053 217.93 169.937 219.149 174.038C219.757 176.08 220.414 177.74 221.133 178.909C221.81 180.011 222.744 181 224 181Z" fill="#1E9F55" stroke="white" stroke-width="2"/>
<path d="M165 168C166.144 168 166.94 167.061 167.476 166.143C168.06 165.142 168.589 163.731 169.076 162.006C170.055 158.542 170.924 153.575 171.65 147.495C173.104 135.32 174 118.528 174 100C174 81.4717 173.104 64.6802 171.65 52.5053C170.924 46.4246 170.055 41.4585 169.076 37.9935C168.589 36.2687 168.06 34.8578 167.476 33.8572C166.94 32.9387 166.144 32 165 32C163.856 32 163.06 32.9387 162.524 33.8572C161.94 34.8578 161.411 36.2687 160.924 37.9935C159.945 41.4585 159.076 46.4246 158.35 52.5053C156.896 64.6802 156 81.4717 156 100C156 118.528 156.896 135.32 158.35 147.495C159.076 153.575 159.945 158.542 160.924 162.006C161.411 163.731 161.94 165.142 162.524 166.143C163.06 167.061 163.856 168 165 168Z" fill="#1E9F55" stroke="white" stroke-width="2"/>
<path d="M346 181C347.256 181 348.19 180.011 348.867 178.909C349.586 177.74 350.243 176.08 350.851 174.038C352.07 169.937 353.156 164.053 354.063 156.84C355.88 142.4 357 122.482 357 100.5C357 78.5185 355.88 58.5998 354.063 44.1602C353.156 36.9475 352.07 31.0632 350.851 26.9625C350.243 24.9195 349.586 23.2605 348.867 22.0915C348.19 20.9892 347.256 20 346 20C344.744 20 343.81 20.9892 343.133 22.0915C342.414 23.2605 341.757 24.9195 341.149 26.9625C339.93 31.0632 338.844 36.9475 337.937 44.1602C336.12 58.5998 335 78.5185 335 100.5C335 122.482 336.12 142.4 337.937 156.84C338.844 164.053 339.93 169.937 341.149 174.038C341.757 176.08 342.414 177.74 343.133 178.909C343.81 180.011 344.744 181 346 181Z" fill="#F69B37" stroke="white" stroke-width="2"/>
<path d="M464 168C465.125 168 465.923 167.106 466.467 166.208C467.055 165.239 467.586 163.876 468.074 162.213C469.053 158.872 469.923 154.087 470.649 148.231C472.103 136.507 473 120.339 473 102.5C473 84.661 472.103 68.493 470.649 56.7685C469.923 50.9133 469.053 46.1281 468.074 42.7873C467.586 41.1245 467.055 39.7608 466.467 38.7921C465.923 37.8941 465.125 37 464 37C462.875 37 462.077 37.8941 461.533 38.7921C460.945 39.7608 460.414 41.1245 459.926 42.7873C458.947 46.1281 458.077 50.9133 457.351 56.7685C455.897 68.493 455 84.661 455 102.5C455 120.339 455.897 136.507 457.351 148.231C458.077 154.087 458.947 158.872 459.926 162.213C460.414 163.876 460.945 165.239 461.533 166.208C462.077 167.106 462.875 168 464 168Z" fill="#1E9F55" stroke="white" stroke-width="2"/>
<path d="M406 175C407.204 175 408.068 174.026 408.673 173.008C409.324 171.913 409.917 170.364 410.464 168.461C411.563 164.641 412.54 159.161 413.357 152.447C414.992 139.004 416 120.462 416 100C416 79.5382 414.992 60.996 413.357 47.5534C412.54 40.839 411.563 35.3592 410.464 31.5389C409.917 29.6364 409.324 28.087 408.673 26.9925C408.068 25.9744 407.204 25 406 25C404.796 25 403.932 25.9744 403.327 26.9925C402.676 28.087 402.083 29.6364 401.536 31.5389C400.437 35.3592 399.46 40.839 398.643 47.5534C397.008 60.996 396 79.5382 396 100C396 120.462 397.008 139.004 398.643 152.447C399.46 159.161 400.437 164.641 401.536 168.461C402.083 170.364 402.676 171.913 403.327 173.008C403.932 174.026 404.796 175 406 175Z" fill="#24A1BB" stroke="white" stroke-width="2"/>
<path d="M231.301 316.562H240.715C242.85 316.562 244.654 316.888 246.125 317.539C247.609 318.19 248.736 319.154 249.504 320.43C250.285 321.693 250.676 323.249 250.676 325.098C250.676 326.4 250.409 327.591 249.875 328.672C249.354 329.74 248.599 330.651 247.609 331.406C246.633 332.148 245.461 332.702 244.094 333.066L243.039 333.477H234.191L234.152 330.41H240.832C242.186 330.41 243.312 330.176 244.211 329.707C245.109 329.225 245.786 328.581 246.242 327.773C246.698 326.966 246.926 326.074 246.926 325.098C246.926 324.004 246.711 323.047 246.281 322.227C245.852 321.406 245.174 320.775 244.25 320.332C243.339 319.876 242.16 319.648 240.715 319.648H235.07V345H231.301V316.562ZM247.922 345L241.008 332.109L244.934 332.09L251.945 344.766V345H247.922ZM266.572 345.391C265.101 345.391 263.766 345.143 262.568 344.648C261.383 344.141 260.361 343.431 259.502 342.52C258.655 341.608 258.004 340.527 257.548 339.277C257.093 338.027 256.865 336.66 256.865 335.176V334.355C256.865 332.637 257.119 331.107 257.627 329.766C258.134 328.411 258.824 327.266 259.697 326.328C260.569 325.391 261.559 324.681 262.666 324.199C263.772 323.717 264.918 323.477 266.103 323.477C267.614 323.477 268.916 323.737 270.009 324.258C271.116 324.779 272.021 325.508 272.724 326.445C273.427 327.37 273.948 328.464 274.287 329.727C274.625 330.977 274.795 332.344 274.795 333.828V335.449H259.013V332.5H271.181V332.227C271.129 331.289 270.934 330.378 270.595 329.492C270.27 328.607 269.749 327.878 269.033 327.305C268.317 326.732 267.34 326.445 266.103 326.445C265.283 326.445 264.528 326.621 263.837 326.973C263.147 327.311 262.555 327.819 262.06 328.496C261.565 329.173 261.181 330 260.908 330.977C260.634 331.953 260.498 333.079 260.498 334.355V335.176C260.498 336.178 260.634 337.122 260.908 338.008C261.194 338.88 261.604 339.648 262.138 340.312C262.685 340.977 263.343 341.497 264.111 341.875C264.892 342.253 265.778 342.441 266.767 342.441C268.043 342.441 269.124 342.181 270.009 341.66C270.895 341.139 271.67 340.443 272.334 339.57L274.521 341.309C274.065 341.999 273.486 342.656 272.783 343.281C272.08 343.906 271.214 344.414 270.185 344.805C269.17 345.195 267.965 345.391 266.572 345.391ZM293.718 339.395C293.718 338.874 293.601 338.392 293.366 337.949C293.145 337.493 292.683 337.083 291.98 336.719C291.29 336.341 290.248 336.016 288.855 335.742C287.683 335.495 286.622 335.202 285.671 334.863C284.734 334.525 283.933 334.115 283.269 333.633C282.618 333.151 282.116 332.585 281.765 331.934C281.413 331.283 281.237 330.521 281.237 329.648C281.237 328.815 281.42 328.027 281.784 327.285C282.162 326.543 282.689 325.885 283.366 325.312C284.057 324.74 284.883 324.29 285.847 323.965C286.81 323.639 287.885 323.477 289.07 323.477C290.762 323.477 292.208 323.776 293.405 324.375C294.603 324.974 295.521 325.775 296.159 326.777C296.797 327.767 297.116 328.867 297.116 330.078H293.503C293.503 329.492 293.327 328.926 292.976 328.379C292.637 327.819 292.136 327.357 291.472 326.992C290.821 326.628 290.02 326.445 289.07 326.445C288.067 326.445 287.253 326.602 286.628 326.914C286.016 327.214 285.567 327.598 285.28 328.066C285.007 328.535 284.87 329.03 284.87 329.551C284.87 329.941 284.935 330.293 285.066 330.605C285.209 330.905 285.456 331.185 285.808 331.445C286.159 331.693 286.654 331.927 287.292 332.148C287.93 332.37 288.744 332.591 289.734 332.812C291.465 333.203 292.891 333.672 294.011 334.219C295.131 334.766 295.964 335.436 296.511 336.23C297.058 337.025 297.331 337.988 297.331 339.121C297.331 340.046 297.136 340.892 296.745 341.66C296.368 342.428 295.814 343.092 295.085 343.652C294.369 344.199 293.51 344.629 292.507 344.941C291.517 345.241 290.404 345.391 289.167 345.391C287.305 345.391 285.73 345.059 284.441 344.395C283.152 343.73 282.175 342.871 281.511 341.816C280.847 340.762 280.515 339.648 280.515 338.477H284.148C284.2 339.466 284.486 340.254 285.007 340.84C285.528 341.413 286.166 341.823 286.921 342.07C287.676 342.305 288.425 342.422 289.167 342.422C290.157 342.422 290.984 342.292 291.648 342.031C292.325 341.771 292.839 341.413 293.191 340.957C293.542 340.501 293.718 339.98 293.718 339.395ZM313.325 323.867V326.641H301.899V323.867H313.325ZM305.766 318.73H309.38V339.766C309.38 340.482 309.49 341.022 309.712 341.387C309.933 341.751 310.22 341.992 310.571 342.109C310.923 342.227 311.3 342.285 311.704 342.285C312.003 342.285 312.316 342.259 312.641 342.207C312.98 342.142 313.234 342.09 313.403 342.051L313.423 345C313.136 345.091 312.759 345.176 312.29 345.254C311.834 345.345 311.281 345.391 310.63 345.391C309.744 345.391 308.93 345.215 308.188 344.863C307.446 344.512 306.854 343.926 306.411 343.105C305.981 342.272 305.766 341.152 305.766 339.746V318.73ZM332.424 341.387V330.508C332.424 329.674 332.255 328.952 331.916 328.34C331.591 327.715 331.096 327.233 330.432 326.895C329.768 326.556 328.948 326.387 327.971 326.387C327.06 326.387 326.259 326.543 325.569 326.855C324.892 327.168 324.358 327.578 323.967 328.086C323.59 328.594 323.401 329.141 323.401 329.727H319.787C319.787 328.971 319.983 328.223 320.373 327.48C320.764 326.738 321.324 326.068 322.053 325.469C322.795 324.857 323.681 324.375 324.709 324.023C325.751 323.659 326.91 323.477 328.186 323.477C329.722 323.477 331.077 323.737 332.248 324.258C333.433 324.779 334.358 325.566 335.022 326.621C335.699 327.663 336.037 328.971 336.037 330.547V340.391C336.037 341.094 336.096 341.842 336.213 342.637C336.343 343.431 336.532 344.115 336.78 344.688V345H333.01C332.828 344.583 332.685 344.03 332.58 343.34C332.476 342.637 332.424 341.986 332.424 341.387ZM333.049 332.188L333.088 334.727H329.436C328.407 334.727 327.489 334.811 326.682 334.98C325.875 335.137 325.198 335.378 324.651 335.703C324.104 336.029 323.687 336.439 323.401 336.934C323.114 337.415 322.971 337.982 322.971 338.633C322.971 339.297 323.121 339.902 323.42 340.449C323.72 340.996 324.169 341.432 324.768 341.758C325.38 342.07 326.129 342.227 327.014 342.227C328.121 342.227 329.097 341.992 329.944 341.523C330.79 341.055 331.461 340.482 331.955 339.805C332.463 339.128 332.737 338.47 332.776 337.832L334.319 339.57C334.228 340.117 333.98 340.723 333.577 341.387C333.173 342.051 332.633 342.689 331.955 343.301C331.291 343.9 330.497 344.401 329.573 344.805C328.661 345.195 327.633 345.391 326.487 345.391C325.054 345.391 323.798 345.111 322.717 344.551C321.649 343.991 320.816 343.242 320.217 342.305C319.631 341.354 319.338 340.293 319.338 339.121C319.338 337.988 319.56 336.992 320.002 336.133C320.445 335.26 321.083 334.538 321.916 333.965C322.75 333.379 323.752 332.936 324.924 332.637C326.096 332.337 327.405 332.188 328.85 332.188H333.049ZM357.051 340.117V323.867H360.684V345H357.227L357.051 340.117ZM357.734 335.664L359.238 335.625C359.238 337.031 359.089 338.333 358.789 339.531C358.503 340.716 358.034 341.745 357.383 342.617C356.732 343.49 355.879 344.173 354.824 344.668C353.77 345.15 352.487 345.391 350.977 345.391C349.948 345.391 349.004 345.241 348.145 344.941C347.298 344.642 346.569 344.18 345.957 343.555C345.345 342.93 344.87 342.116 344.531 341.113C344.206 340.111 344.043 338.906 344.043 337.5V323.867H347.656V337.539C347.656 338.49 347.76 339.277 347.969 339.902C348.19 340.514 348.483 341.003 348.848 341.367C349.225 341.719 349.642 341.966 350.098 342.109C350.566 342.253 351.048 342.324 351.543 342.324C353.079 342.324 354.297 342.031 355.195 341.445C356.094 340.846 356.738 340.046 357.129 339.043C357.533 338.027 357.734 336.901 357.734 335.664ZM372.205 327.188V345H368.591V323.867H372.107L372.205 327.188ZM378.806 323.75L378.787 327.109C378.487 327.044 378.201 327.005 377.927 326.992C377.667 326.966 377.367 326.953 377.029 326.953C376.196 326.953 375.46 327.083 374.822 327.344C374.184 327.604 373.643 327.969 373.201 328.438C372.758 328.906 372.407 329.466 372.146 330.117C371.899 330.755 371.736 331.458 371.658 332.227L370.642 332.812C370.642 331.536 370.766 330.339 371.013 329.219C371.274 328.099 371.671 327.109 372.205 326.25C372.739 325.378 373.416 324.701 374.236 324.219C375.069 323.724 376.059 323.477 377.205 323.477C377.465 323.477 377.765 323.509 378.103 323.574C378.442 323.626 378.676 323.685 378.806 323.75ZM396.226 341.387V330.508C396.226 329.674 396.057 328.952 395.718 328.34C395.392 327.715 394.898 327.233 394.234 326.895C393.57 326.556 392.749 326.387 391.773 326.387C390.861 326.387 390.06 326.543 389.37 326.855C388.693 327.168 388.159 327.578 387.769 328.086C387.391 328.594 387.202 329.141 387.202 329.727H383.589C383.589 328.971 383.784 328.223 384.175 327.48C384.566 326.738 385.126 326.068 385.855 325.469C386.597 324.857 387.482 324.375 388.511 324.023C389.553 323.659 390.711 323.477 391.988 323.477C393.524 323.477 394.878 323.737 396.05 324.258C397.235 324.779 398.159 325.566 398.823 326.621C399.501 327.663 399.839 328.971 399.839 330.547V340.391C399.839 341.094 399.898 341.842 400.015 342.637C400.145 343.431 400.334 344.115 400.581 344.688V345H396.812C396.629 344.583 396.486 344.03 396.382 343.34C396.278 342.637 396.226 341.986 396.226 341.387ZM396.851 332.188L396.89 334.727H393.238C392.209 334.727 391.291 334.811 390.484 334.98C389.676 335.137 388.999 335.378 388.452 335.703C387.905 336.029 387.489 336.439 387.202 336.934C386.916 337.415 386.773 337.982 386.773 338.633C386.773 339.297 386.922 339.902 387.222 340.449C387.521 340.996 387.971 341.432 388.57 341.758C389.182 342.07 389.93 342.227 390.816 342.227C391.922 342.227 392.899 341.992 393.745 341.523C394.592 341.055 395.262 340.482 395.757 339.805C396.265 339.128 396.538 338.47 396.577 337.832L398.12 339.57C398.029 340.117 397.782 340.723 397.378 341.387C396.974 342.051 396.434 342.689 395.757 343.301C395.093 343.9 394.299 344.401 393.374 344.805C392.463 345.195 391.434 345.391 390.288 345.391C388.856 345.391 387.599 345.111 386.519 344.551C385.451 343.991 384.618 343.242 384.019 342.305C383.433 341.354 383.14 340.293 383.14 339.121C383.14 337.988 383.361 336.992 383.804 336.133C384.247 335.26 384.885 334.538 385.718 333.965C386.551 333.379 387.554 332.936 388.726 332.637C389.898 332.337 391.206 332.188 392.652 332.188H396.851ZM411.536 328.379V345H407.923V323.867H411.341L411.536 328.379ZM410.677 333.633L409.173 333.574C409.186 332.129 409.401 330.794 409.817 329.57C410.234 328.333 410.82 327.259 411.575 326.348C412.33 325.436 413.229 324.733 414.27 324.238C415.325 323.73 416.49 323.477 417.766 323.477C418.808 323.477 419.746 323.62 420.579 323.906C421.412 324.18 422.122 324.622 422.708 325.234C423.307 325.846 423.762 326.641 424.075 327.617C424.387 328.581 424.544 329.759 424.544 331.152V345H420.911V331.113C420.911 330.007 420.748 329.121 420.423 328.457C420.097 327.78 419.622 327.292 418.997 326.992C418.372 326.68 417.604 326.523 416.692 326.523C415.794 326.523 414.973 326.712 414.231 327.09C413.502 327.467 412.871 327.988 412.337 328.652C411.816 329.316 411.406 330.078 411.106 330.938C410.82 331.784 410.677 332.682 410.677 333.633ZM441.28 323.867V326.641H429.854V323.867H441.28ZM433.721 318.73H437.334V339.766C437.334 340.482 437.445 341.022 437.666 341.387C437.888 341.751 438.174 341.992 438.526 342.109C438.877 342.227 439.255 342.285 439.659 342.285C439.958 342.285 440.271 342.259 440.596 342.207C440.935 342.142 441.189 342.09 441.358 342.051L441.377 345C441.091 345.091 440.713 345.176 440.245 345.254C439.789 345.345 439.235 345.391 438.584 345.391C437.699 345.391 436.885 345.215 436.143 344.863C435.401 344.512 434.808 343.926 434.366 343.105C433.936 342.272 433.721 341.152 433.721 339.746V318.73Z" fill="#7D7D7D"/>
</g>
<defs>
<clipPath id="clip0_15_108">
<rect width="668" height="357" fill="white"/>
</clipPath>
</defs>
</svg>
