<svg width="668" height="190" viewBox="0 0 668 190" fill="none" xmlns="http://www.w3.org/2000/svg">
<g clip-path="url(#clip0_15_328)">
<rect width="668" height="190" fill="white"/>
<rect x="-39" y="-199" width="731" height="612" fill="white"/>
<rect x="532" y="33" width="124" height="131" fill="#F69B37"/>
<ellipse cx="531.5" cy="-40" rx="144.5" ry="137" fill="white"/>
<ellipse cx="531.5" cy="234" rx="144.5" ry="137" fill="white"/>
<ellipse cx="780.5" cy="97" rx="144.5" ry="137" fill="white"/>
<ellipse cx="225.279" cy="99.5" rx="216.279" ry="78.5" fill="#F69B37"/>
<rect x="97.2772" y="-80" width="408.723" height="370" fill="white"/>
<path d="M58.4351 95C62.5959 95 66.462 94.1088 69.3604 92.5697C72.1708 91.0774 74.5594 88.6738 74.5594 85.5C74.5594 82.3262 72.1708 79.9226 69.3604 78.4303C66.462 76.8912 62.5959 76 58.4351 76C54.2742 76 50.4081 76.8912 47.5097 78.4303C44.6993 79.9226 42.3107 82.3262 42.3107 85.5C42.3107 88.6738 44.6993 91.0774 47.5097 92.5697C50.4081 94.1088 54.2742 95 58.4351 95Z" fill="#DD1D24" stroke="white" stroke-width="4"/>
<ellipse cx="319.5" cy="97" rx="199.5" ry="8" fill="#A7A7A7"/>
<path d="M282 178C283.256 178 284.19 177.011 284.867 175.909C285.586 174.74 286.243 173.08 286.851 171.038C288.07 166.937 289.156 161.053 290.063 153.84C291.88 139.4 293 119.482 293 97.5C293 75.5185 291.88 55.5998 290.063 41.1602C289.156 33.9475 288.07 28.0632 286.851 23.9625C286.243 21.9195 285.586 20.2605 284.867 19.0915C284.19 17.9892 283.256 17 282 17C280.744 17 279.81 17.9892 279.133 19.0915C278.414 20.2605 277.757 21.9195 277.149 23.9625C275.93 28.0632 274.844 33.9475 273.937 41.1602C272.12 55.5998 271 75.5185 271 97.5C271 119.482 272.12 139.4 273.937 153.84C274.844 161.053 275.93 166.937 277.149 171.038C277.757 173.08 278.414 174.74 279.133 175.909C279.81 177.011 280.744 178 282 178Z" fill="#DD1D24" stroke="white" stroke-width="2"/>
<path d="M221 178C222.256 178 223.19 177.011 223.867 175.909C224.586 174.74 225.243 173.08 225.851 171.038C227.07 166.937 228.156 161.053 229.063 153.84C230.88 139.4 232 119.482 232 97.5C232 75.5185 230.88 55.5998 229.063 41.1602C228.156 33.9475 227.07 28.0632 225.851 23.9625C225.243 21.9195 224.586 20.2605 223.867 19.0915C223.19 17.9892 222.256 17 221 17C219.744 17 218.81 17.9892 218.133 19.0915C217.414 20.2605 216.757 21.9195 216.149 23.9625C214.93 28.0632 213.844 33.9475 212.937 41.1602C211.12 55.5998 210 75.5185 210 97.5C210 119.482 211.12 139.4 212.937 153.84C213.844 161.053 214.93 166.937 216.149 171.038C216.757 173.08 217.414 174.74 218.133 175.909C218.81 177.011 219.744 178 221 178Z" fill="#1E9F55" stroke="white" stroke-width="2"/>
<path d="M162 165C163.144 165 163.94 164.061 164.476 163.143C165.06 162.142 165.589 160.731 166.076 159.006C167.055 155.542 167.924 150.575 168.65 144.495C170.104 132.32 171 115.528 171 97C171 78.4717 170.104 61.6802 168.65 49.5053C167.924 43.4246 167.055 38.4585 166.076 34.9935C165.589 33.2687 165.06 31.8578 164.476 30.8572C163.94 29.9387 163.144 29 162 29C160.856 29 160.06 29.9387 159.524 30.8572C158.94 31.8578 158.411 33.2687 157.924 34.9935C156.945 38.4585 156.076 43.4246 155.35 49.5053C153.896 61.6802 153 78.4717 153 97C153 115.528 153.896 132.32 155.35 144.495C156.076 150.575 156.945 155.542 157.924 159.006C158.411 160.731 158.94 162.142 159.524 163.143C160.06 164.061 160.856 165 162 165Z" fill="#1E9F55" stroke="white" stroke-width="2"/>
<path d="M343 178C344.256 178 345.19 177.011 345.867 175.909C346.586 174.74 347.243 173.08 347.851 171.038C349.07 166.937 350.156 161.053 351.063 153.84C352.88 139.4 354 119.482 354 97.5C354 75.5185 352.88 55.5998 351.063 41.1602C350.156 33.9475 349.07 28.0632 347.851 23.9625C347.243 21.9195 346.586 20.2605 345.867 19.0915C345.19 17.9892 344.256 17 343 17C341.744 17 340.81 17.9892 340.133 19.0915C339.414 20.2605 338.757 21.9195 338.149 23.9625C336.93 28.0632 335.844 33.9475 334.937 41.1602C333.12 55.5998 332 75.5185 332 97.5C332 119.482 333.12 139.4 334.937 153.84C335.844 161.053 336.93 166.937 338.149 171.038C338.757 173.08 339.414 174.74 340.133 175.909C340.81 177.011 341.744 178 343 178Z" fill="#F69B37" stroke="white" stroke-width="2"/>
<path d="M461 165C462.125 165 462.923 164.106 463.467 163.208C464.055 162.239 464.586 160.876 465.074 159.213C466.053 155.872 466.923 151.087 467.649 145.231C469.103 133.507 470 117.339 470 99.5C470 81.661 469.103 65.493 467.649 53.7685C466.923 47.9133 466.053 43.1281 465.074 39.7873C464.586 38.1245 464.055 36.7608 463.467 35.7921C462.923 34.8941 462.125 34 461 34C459.875 34 459.077 34.8941 458.533 35.7921C457.945 36.7608 457.414 38.1245 456.926 39.7873C455.947 43.1281 455.077 47.9133 454.351 53.7685C452.897 65.493 452 81.661 452 99.5C452 117.339 452.897 133.507 454.351 145.231C455.077 151.087 455.947 155.872 456.926 159.213C457.414 160.876 457.945 162.239 458.533 163.208C459.077 164.106 459.875 165 461 165Z" fill="#1E9F55" stroke="white" stroke-width="2"/>
<path d="M403 172C404.204 172 405.068 171.026 405.673 170.008C406.324 168.913 406.917 167.364 407.464 165.461C408.563 161.641 409.54 156.161 410.357 149.447C411.992 136.004 413 117.462 413 97C413 76.5382 411.992 57.996 410.357 44.5534C409.54 37.839 408.563 32.3592 407.464 28.5389C406.917 26.6364 406.324 25.087 405.673 23.9925C405.068 22.9744 404.204 22 403 22C401.796 22 400.932 22.9744 400.327 23.9925C399.676 25.087 399.083 26.6364 398.536 28.5389C397.437 32.3592 396.46 37.839 395.643 44.5534C394.008 57.996 393 76.5382 393 97C393 117.462 394.008 136.004 395.643 149.447C396.46 156.161 397.437 161.641 398.536 165.461C399.083 167.364 399.676 168.913 400.327 170.008C400.932 171.026 401.796 172 403 172Z" fill="#24A1BB" stroke="white" stroke-width="2"/>
</g>
<defs>
<clipPath id="clip0_15_328">
<rect width="668" height="190" fill="white"/>
</clipPath>
</defs>
</svg>
