<svg width="48" height="48" viewBox="0 0 48 48" fill="none" xmlns="http://www.w3.org/2000/svg">
<g clip-path="url(#clip0_24_40)">
<mask id="mask0_24_40" style="mask-type:luminance" maskUnits="userSpaceOnUse" x="0" y="0" width="48" height="48">
<path d="M39.0508 0H8.94915C4.00667 0 0 4.00667 0 8.94915V39.0508C0 43.9933 4.00667 48 8.94915 48H39.0508C43.9933 48 48 43.9933 48 39.0508V8.94915C48 4.00667 43.9933 0 39.0508 0Z" fill="white"/>
</mask>
<g mask="url(#mask0_24_40)">
<path d="M39.0508 0H8.94915C4.00667 0 0 4.00667 0 8.94915V39.0508C0 43.9933 4.00667 48 8.94915 48H39.0508C43.9933 48 48 43.9933 48 39.0508V8.94915C48 4.00667 43.9933 0 39.0508 0Z" fill="#F2F2F2"/>
<path fill-rule="evenodd" clip-rule="evenodd" d="M0 0V48H48V0H0ZM40.5958 10.6212L34.9562 37.7476C34.8234 38.3881 34.0724 38.6783 33.5425 38.2933L25.844 32.704C25.3767 32.3647 24.7394 32.3827 24.292 32.7475L20.0237 36.2268C19.5284 36.6319 18.7819 36.4061 18.5923 35.796L15.6285 26.2645L7.97138 23.4068C7.19356 23.1154 7.18692 22.0174 7.96252 21.7185L39.3874 9.59569C40.0536 9.33803 40.7409 9.92168 40.5958 10.6212Z" fill="black"/>
<path fill-rule="evenodd" clip-rule="evenodd" d="M33.0798 15.5266L18.115 24.7434C17.5413 25.0973 17.2714 25.79 17.4565 26.4384L19.0744 32.1237C19.1895 32.5264 19.774 32.4853 19.83 32.0691L20.2505 28.9515C20.3299 28.3645 20.6098 27.8234 21.044 27.4194L33.3941 15.9393C33.6254 15.7252 33.3486 15.3615 33.0798 15.5266Z" fill="black"/>
</g>
</g>
<defs>
<clipPath id="clip0_24_40">
<rect width="48" height="48" fill="white"/>
</clipPath>
</defs>
</svg>
