<svg width="48" height="48" viewBox="0 0 48 48" fill="none" xmlns="http://www.w3.org/2000/svg">
<mask id="mask0_149_129" style="mask-type:luminance" maskUnits="userSpaceOnUse" x="0" y="0" width="48" height="48">
<path d="M39.0508 0H8.94915C4.00667 0 0 4.00667 0 8.94915V39.0508C0 43.9933 4.00667 48 8.94915 48H39.0508C43.9933 48 48 43.9933 48 39.0508V8.94915C48 4.00667 43.9933 0 39.0508 0Z" fill="white"/>
</mask>
<g mask="url(#mask0_149_129)">
<path d="M39.0508 0H8.94915C4.00667 0 0 4.00667 0 8.94915V39.0508C0 43.9933 4.00667 48 8.94915 48H39.0508C43.9933 48 48 43.9933 48 39.0508V8.94915C48 4.00667 43.9933 0 39.0508 0Z" fill="#F2F2F2"/>
<path d="M0 0V48H48V0H0ZM35.631 18.033C35.643 18.291 35.649 18.5505 35.649 18.8115C35.649 26.739 29.6175 35.886 18.5745 35.886C15.1845 35.886 12.033 34.896 9.37497 33.1905C9.84602 33.243 10.323 33.273 10.8075 33.273C13.62 33.273 16.206 32.3145 18.2595 30.705C15.6345 30.657 13.4175 28.923 12.6555 26.541C13.0215 26.6115 13.3965 26.646 13.7835 26.646C14.331 26.646 14.862 26.5725 15.3645 26.4315C12.6225 25.881 10.551 23.457 10.551 20.5485C10.551 20.523 10.551 20.499 10.551 20.4735C11.3625 20.9235 12.2865 21.192 13.2705 21.2235C11.661 20.148 10.602 18.3105 10.602 16.2255C10.602 15.129 10.8975 14.0955 11.415 13.2105C14.373 16.8405 18.7965 19.233 23.7825 19.4805C23.682 19.041 23.6265 18.5835 23.6265 18.114C23.6265 14.8005 26.313 12.114 29.6295 12.114C31.35 12.114 32.9115 12.8415 34.008 14.01C35.373 13.74 36.66 13.239 37.8195 12.5535C37.3695 13.956 36.4185 15.132 35.181 15.873C36.396 15.7275 37.551 15.405 38.6265 14.9295C37.821 16.134 36.804 17.1885 35.631 18.033Z" fill="black"/>
</g>
</svg>
